<svg xmlns="http://www.w3.org/2000/svg" aria-hidden="true" style="position:absolute;width:0;height:0;overflow:hidden">
  <defs>
    <symbol id="icon-burger-menu" viewBox="0 0 32 32">
      <path stroke-linecap="round" stroke-linejoin="round" stroke-width="2.286" d="M22.667 13.333H4M28 8H4M28 18.667H4M22.667 24H4"/>
    </symbol>
    <symbol id="icon-arrow-narrow-right" viewBox="0 0 32 32">
      <path stroke-linecap="round" stroke-linejoin="round" stroke-width="3.2" d="M5.333 16h21.333m.001 0-8-8m8 8-8 8"/>
    </symbol>
    <symbol id="icon-dump" viewBox="0 0 32 32">
      <path fill="#4f2ee8" d="M32 16c0 8.837-7.163 16-16 16S0 24.837 0 16 7.163 0 16 0s16 7.163 16 16z" style="fill:var(--color1, #4f2ee8)"/>
      <path fill="none" stroke="#fff" stroke-linecap="round" stroke-linejoin="round" stroke-width="1.684" d="M13.684 9.053h4.632m-9.263 2.315h13.895m-1.544 0-.541 8.12c-.081 1.218-.122 1.827-.385 2.289a2.322 2.322 0 0 1-1.002.938c-.478.232-1.089.232-2.31.232h-2.33c-1.221 0-1.832 0-2.31-.232a2.31 2.31 0 0 1-1.002-.938c-.263-.462-.304-1.071-.385-2.289l-.541-8.12m3.858 3.474v3.86m3.088-3.86v3.86" style="stroke:var(--color2, #fff)"/>
    </symbol>
    <symbol id="icon-arrow-drop-down" viewBox="0 0 28 32">
      <path d="M5.898 12h16.513l-7.423 8.391c-.221.25-.521.39-.834.39s-.613-.14-.834-.39L5.897 12z"/>
    </symbol>
    <symbol id="icon-lock" viewBox="0 0 32 32">
      <path stroke-linecap="round" stroke-linejoin="round" stroke-width="2.286" d="M22.667 14.667v-4a6.667 6.667 0 0 0-13.334 0v4M10.4 28h11.2c2.24 0 3.36 0 4.216-.436a3.991 3.991 0 0 0 1.748-1.748C28 24.96 28 23.84 28 21.6v-.533c0-2.24 0-3.36-.436-4.216a3.991 3.991 0 0 0-1.748-1.748c-.856-.436-1.976-.436-4.216-.436H10.4c-2.24 0-3.36 0-4.216.436a3.996 3.996 0 0 0-1.748 1.748C4 17.707 4 18.827 4 21.067v.533c0 2.24 0 3.36.436 4.216a3.991 3.991 0 0 0 1.748 1.748C7.04 28 8.16 28 10.4 28z"/>
    </symbol>
    <symbol id="icon-logo" viewBox="0 0 125 32">
<path fill="#f6f6f6" style="fill: var(--color1, #f6f6f6)" d="M0 2.286l14.008 13.862 13.421 13.567v-27.429h-27.429z"></path>
<path fill="#f6f6f6" style="fill: var(--color1, #f6f6f6)" d="M3.821 5.91l10.237 10.139 9.649 9.845h-19.886v-19.984z"></path>
<path fill="#4f2ee8" style="fill: var(--color2, #4f2ee8)" d="M23.771 25.959l-10.238-10.139-9.648-9.845h19.886v19.984z"></path>
<path fill="#4f2ee8" style="fill: var(--color2, #4f2ee8)" d="M7.935 10.024l11.657 11.658h-11.657v-11.657z"></path>
<path fill="#f6f6f6" style="fill: var(--color1, #f6f6f6)" d="M7.935 10.024l11.657 11.658v-11.657h-11.657z"></path>
<path fill="#000" style="fill: var(--color3, #000)" d="M47.659 12.266c0-2.366-1.749-3.703-4.773-3.703h-6.315v14.709h6.665c3.045 0 4.999-1.461 4.999-4.299 0-2.201-1.317-3.333-2.859-3.6v-0.041c1.214-0.411 2.283-1.255 2.283-3.065zM39.019 14.653v-4.011h3.929c1.461 0 2.263 0.72 2.263 2.016s-0.658 1.995-2.407 1.995h-3.785zM39.019 16.483h4.299c1.543 0 2.469 0.843 2.469 2.345 0 1.378-0.638 2.366-2.736 2.366h-4.032v-4.711zM54.517 23.581c-3.291 0-5.287-2.283-5.287-5.554s1.995-5.554 5.287-5.554c3.291 0 5.287 2.283 5.287 5.554s-1.995 5.554-5.287 5.554zM54.517 21.811c2.057 0 3.127-1.625 3.127-3.785 0-2.181-1.070-3.785-3.127-3.785s-3.127 1.605-3.127 3.785c0 2.16 1.070 3.785 3.127 3.785zM66.027 23.581c-3.291 0-5.287-2.283-5.287-5.554s1.995-5.554 5.287-5.554c3.291 0 5.287 2.283 5.287 5.554s-1.995 5.554-5.287 5.554zM66.027 21.811c2.057 0 3.127-1.625 3.127-3.785 0-2.181-1.070-3.785-3.127-3.785s-3.127 1.605-3.127 3.785c0 2.16 1.070 3.785 3.127 3.785zM72.807 8.563v14.709h2.16v-3.806l1.461-1.378 3.312 5.184h2.592l-4.423-6.603 3.991-3.909h-2.654l-4.279 4.217v-8.414h-2.16zM87.538 16.915c-1.522-0.35-2.695-0.432-2.695-1.502 0-0.741 0.699-1.234 1.995-1.234 1.687 0 2.098 0.843 2.242 1.666h2.098c-0.144-1.831-1.502-3.374-4.361-3.374-2.633 0-4.155 1.378-4.155 3.106 0 2.386 2.263 2.715 3.929 3.106 1.543 0.37 2.798 0.473 2.798 1.79 0 0.658-0.638 1.399-2.139 1.399-2.222 0-2.715-0.967-2.818-2.098h-2.098c0.103 2.222 1.563 3.806 4.958 3.806 2.551 0 4.279-1.255 4.279-3.271 0-2.51-2.098-2.942-4.032-3.394zM98.633 12.472c-1.769 0-2.859 0.823-3.415 1.646h-0.041v-5.554h-2.16v14.709h2.16v-6.398c0-1.563 1.131-2.571 2.715-2.571 1.502 0 2.098 0.905 2.098 2.325v6.645h2.181v-7.262c0-2.407-1.543-3.538-3.538-3.538zM108.795 21.811c-1.913 0-3.045-1.461-3.045-3.23h8.064c0-3.744-1.666-6.11-5.061-6.11-3.168 0-5.163 2.139-5.163 5.554 0 3.291 1.995 5.554 5.266 5.554 2.695 0 4.258-1.522 4.793-3.518h-2.16c-0.185 0.638-0.905 1.749-2.695 1.749zM108.754 14.179c1.749 0 2.901 1.173 2.901 2.798h-5.904c0-1.625 1.255-2.798 3.003-2.798zM115.337 8.563v14.709h2.181v-14.709h-2.181zM124.573 10.333v-1.769c-0.432-0.090-0.929-0.142-1.438-0.144h-0.002c-1.728 0-2.674 0.782-2.674 3.003v1.337h-1.502v1.769h1.502v8.743h2.181v-8.743h1.934v-1.769h-1.934v-1.152c0-1.193 0.535-1.337 1.934-1.275z"></path>
</symbol>
    <symbol id="icon-Logotype" viewBox="0 0 34 32">
      <path d="M32.716 8.869a15.813 15.813 0 0 0-2.24-.953v18.801a15.321 15.321 0 0 0-5.333-.969c-2.895 0-5.76.844-8.381 2.469V9.306c-2.469-1.454-5.318-2.313-8.381-2.313-2.728 0-5.303.688-7.573 1.875-.503.25-.808.797-.808 1.375v18.88c0 .906.716 1.547 1.524 1.547.244 0 .488-.063.731-.188 1.844-.985 3.916-1.61 6.126-1.61 3.154 0 6.065 1.282 8.381 3.126 2.316-1.844 5.227-3.126 8.381-3.126 2.21 0 4.282.625 6.126 1.625.244.125.488.188.731.188.792 0 1.524-.641 1.524-1.547V10.243c0-.578-.305-1.125-.808-1.375zM13.714 26.717c-1.737-.641-3.52-.969-5.333-.969s-3.596.328-5.333.969V11.229a13.263 13.263 0 0 1 5.333-1.11c1.829 0 3.642.391 5.333 1.125v15.473zM27.429 1.524 19.81 9.338v14.847l7.619-7.033V1.523z"/>
    </symbol>
    <symbol id="icon-mail" viewBox="0 0 32 32">
      <path stroke-linecap="round" stroke-linejoin="round" stroke-width="2.286" d="m28.666 24-8.857-8m-7.619 0-8.857 8M2.667 9.333l10.887 7.621c.882.617 1.322.926 1.802 1.045.423.106.866.106 1.29 0 .479-.12.92-.428 1.802-1.045l10.887-7.621M9.067 26.667h13.867c2.24 0 3.36 0 4.216-.436a3.996 3.996 0 0 0 1.748-1.748c.436-.856.436-1.976.436-4.216v-8.533c0-2.24 0-3.36-.436-4.216A3.991 3.991 0 0 0 27.15 5.77c-.856-.436-1.976-.436-4.216-.436H9.067c-2.24 0-3.36 0-4.216.436a3.991 3.991 0 0 0-1.748 1.748c-.436.856-.436 1.976-.436 4.216v8.533c0 2.24 0 3.36.436 4.216a3.996 3.996 0 0 0 1.748 1.748c.856.436 1.976.436 4.216.436z"/>
    </symbol>
    <symbol id="icon-arrow-back-to-top" viewBox="0 0 32 32">
      <path d="M4.5 19.6 15.7 8.367c.133-.133.278-.228.433-.283s.322-.084.5-.084.345.028.5.084.3.149.433.283L28.799 19.6c.311.311.467.7.467 1.167s-.167.867-.5 1.2c-.333.333-.722.5-1.167.5s-.833-.167-1.167-.5l-9.8-9.8-9.8 9.8c-.311.311-.694.467-1.149.467s-.851-.167-1.184-.5-.5-.722-.5-1.167c0-.444.167-.833.5-1.167z"/>
    </symbol>
    <symbol id="icon-user" viewBox="0 0 32 32">
      <path d="M5.333 29.333a10.662 10.662 0 0 1 18.208-7.543c2 2 3.124 4.714 3.124 7.543H5.332zm10.667-12c-4.42 0-8-3.58-8-8s3.58-8 8-8 8 3.58 8 8-3.58 8-8 8z"/>
    </symbol>
    <symbol id="icon-x-close" viewBox="0 0 32 32">
      <path stroke-linecap="round" stroke-linejoin="round" stroke-width="3.429" d="M24 8 8 24M8 8l16 16"/>
    </symbol>
    <symbol id="icon-cart" viewBox="0 0 32 32">
      <path d="M25.333 9.333h-4V8a5.332 5.332 0 1 0-10.666 0v1.333h-4a1.335 1.335 0 0 0-1.334 1.334v14.667a4.003 4.003 0 0 0 4 4h13.333a4.003 4.003 0 0 0 4-4V10.667a1.335 1.335 0 0 0-1.334-1.334zM13.333 8a2.668 2.668 0 0 1 5.334 0v1.333h-5.333V8zM24 25.333a1.335 1.335 0 0 1-1.334 1.334H9.333a1.335 1.335 0 0 1-1.334-1.334V12h2.667v1.333a1.335 1.335 0 0 0 2.277.943c.25-.251.391-.589.391-.943V12h5.333v1.333a1.333 1.333 0 1 0 2.667 0V12h2.667v13.333z"/>
    </symbol>
        <symbol id="icon-ukraine" viewBox="0 0 20 32">
      <path d="M9.005 30.888a8.64 8.64 0 0 1-3.414-5.351H0V2.42c2.991 1.443 5.153 4.599 5.388 7.876l.846 6.493-.407-.045c-.893 0-1.676.812-1.676 1.608 0 .752.595 1.383 1.378 1.548l1.018.226c1.676-3.051 2.631-6.042 2.631-8.973 0-2.645-.36-5.291-.423-7.996 0-1.202.486-2.3 1.253-3.156.783.857 1.253 1.954 1.253 3.156 0 2.705-.423 5.351-.423 7.996 0 2.931.955 5.922 2.631 8.973l1.018-.226c.783-.165 1.378-.812 1.378-1.548 0-.812-.783-1.608-1.676-1.608l-.423.06.846-6.493c.423-3.277 2.396-6.448 5.388-7.876v23.117h-5.576c-.423 2.179-1.613 4.148-3.414 5.351-.423.286-.783.631-1.018 1.097-.219-.466-.579-.812-.987-1.112zM2.647 17.556c.235-.857.893-1.608 1.738-2.074l-.658-5.351a8.288 8.288 0 0 0-2.036-4.374v11.784h.955v.015zm2.819 6.373c0-.812.125-1.548.298-2.3l-.783-.18c-1.143-.346-2.036-1.203-2.334-2.3h-.955v4.78h3.774zm3.712 0c0-.977-.783-1.834-1.801-1.954-.172.631-.298 1.263-.298 1.954h2.099zm0 1.623H7.314c.298 1.263.955 2.42 1.864 3.397v-3.397zm2.631-5.005c-.72-1.262-1.378-2.585-1.801-3.968-.423 1.383-1.081 2.706-1.801 3.968.72.165 1.316.631 1.801 1.157.486-.526 1.081-.992 1.801-1.157zm1.143 3.382c0-.691-.125-1.323-.297-1.954-1.018.12-1.801.977-1.801 1.954h2.099zm-.235 1.623h-1.864v3.397c.908-.992 1.566-2.134 1.864-3.397zm5.623-1.623v-4.78h-.955c-.298 1.097-1.206 1.954-2.334 2.3l-.783.18c.172.752.298 1.488.298 2.3h3.774zm0-6.373V5.757c-1.081 1.202-1.864 2.706-2.036 4.374l-.658 5.351c.846.466 1.504 1.203 1.739 2.074h.955z"/>
    </symbol>
    <symbol id="icon-logo-dark" viewBox="0 0 125 32">
      <path fill="#f6f6f6" d="m0 2.286 14.008 13.861 13.42 13.567V2.285H-.001z" style="fill:var(--color1, #f6f6f6)"/>
      <path fill="#f6f6f6" d="m3.82 5.91 10.237 10.139 9.649 9.845H3.82V5.91z" style="fill:var(--color1, #f6f6f6)"/>
      <path fill="#4f2ee8" d="M23.771 25.959 13.534 15.82 3.885 5.975h19.886v19.984z" style="fill:var(--color2, #4f2ee8)"/>
      <path fill="#4f2ee8" d="m7.935 10.024 11.657 11.657H7.935V10.024z" style="fill:var(--color2, #4f2ee8)"/>
      <path fill="#f6f6f6" d="m7.935 10.024 11.657 11.657V10.024H7.935z" style="fill:var(--color1, #f6f6f6)"/>
      <path fill="#f3f3f3" d="M47.659 12.266c0-2.366-1.749-3.703-4.773-3.703h-6.315v14.709h6.665c3.045 0 4.999-1.461 4.999-4.299 0-2.201-1.317-3.333-2.859-3.6v-.041c1.214-.411 2.283-1.255 2.283-3.065zm-8.64 2.387v-4.011h3.929c1.461 0 2.263.72 2.263 2.016s-.658 1.995-2.407 1.995h-3.785zm0 1.83h4.299c1.543 0 2.469.843 2.469 2.345 0 1.378-.638 2.366-2.736 2.366h-4.032v-4.711zM54.516 23.581c-3.291 0-5.287-2.283-5.287-5.554s1.995-5.554 5.287-5.554c3.291 0 5.287 2.283 5.287 5.554s-1.995 5.554-5.287 5.554zm0-1.77c2.057 0 3.127-1.625 3.127-3.785 0-2.181-1.07-3.785-3.127-3.785s-3.127 1.605-3.127 3.785c0 2.16 1.07 3.785 3.127 3.785zM66.027 23.581c-3.291 0-5.287-2.283-5.287-5.554s1.995-5.554 5.287-5.554c3.291 0 5.287 2.283 5.287 5.554s-1.995 5.554-5.287 5.554zm0-1.77c2.057 0 3.127-1.625 3.127-3.785 0-2.181-1.07-3.785-3.127-3.785S62.9 15.846 62.9 18.026c0 2.16 1.07 3.785 3.127 3.785zM72.807 8.563v14.709h2.16v-3.806l1.461-1.378 3.312 5.184h2.592l-4.423-6.603L81.9 12.76h-2.654l-4.279 4.217V8.563h-2.16zM87.539 16.915c-1.522-.35-2.695-.432-2.695-1.502 0-.741.699-1.234 1.995-1.234 1.687 0 2.098.843 2.242 1.666h2.098c-.144-1.831-1.502-3.374-4.361-3.374-2.633 0-4.155 1.378-4.155 3.106 0 2.386 2.263 2.715 3.929 3.106 1.543.37 2.798.473 2.798 1.79 0 .658-.638 1.399-2.139 1.399-2.222 0-2.715-.967-2.818-2.098h-2.098c.103 2.222 1.563 3.806 4.958 3.806 2.551 0 4.279-1.255 4.279-3.271 0-2.51-2.098-2.942-4.032-3.394zM98.633 12.472c-1.769 0-2.859.823-3.415 1.646h-.041V8.564h-2.16v14.709h2.16v-6.398c0-1.563 1.131-2.571 2.715-2.571 1.502 0 2.098.905 2.098 2.325v6.645h2.181v-7.262c0-2.407-1.543-3.538-3.538-3.538zM108.796 21.811c-1.913 0-3.045-1.461-3.045-3.23h8.064c0-3.744-1.666-6.11-5.061-6.11-3.168 0-5.163 2.139-5.163 5.554 0 3.291 1.995 5.554 5.266 5.554 2.695 0 4.258-1.522 4.793-3.518h-2.16c-.185.638-.905 1.749-2.695 1.749zm-.042-7.632c1.749 0 2.901 1.173 2.901 2.798h-5.904c0-1.625 1.255-2.798 3.003-2.798zM115.337 8.563v14.709h2.181V8.563h-2.181zM124.573 10.333V8.564a7.6 7.6 0 0 0-1.44-.144c-1.728 0-2.674.782-2.674 3.003v1.337h-1.502v1.769h1.502v8.743h2.181v-8.743h1.934V12.76h-1.934v-1.152c0-1.193.535-1.337 1.934-1.275z" style="fill:var(--color3, #f3f3f3)"/>
    </symbol>
    <symbol id="Amazon" viewBox="0 0 64 64">
    
    <path d="M 32.689453 5.0253906 C 23.246453 5.0253906 17.175703 9.5225469 15.595703 17.685547 L 15.587891 17.730469 L 15.580078 17.775391 C 15.339078 19.460391 16.326156 20.879641 18.035156 21.306641 L 18.152344 21.335938 L 18.271484 21.349609 L 24.582031 22.09375 C 24.020031 22.26775 23.469641 22.467266 22.931641 22.697266 C 17.492641 25.005266 14.369141 29.789219 14.369141 35.824219 C 14.369141 43.568219 19.163938 48.572266 26.585938 48.572266 C 31.298938 48.572266 34.47725 47.487875 37.90625 44.546875 C 38.61125 45.576875 39.446625 46.590609 41.015625 47.974609 L 41.197266 48.134766 L 41.414062 48.244141 C 41.914062 48.494141 42.464813 48.626953 43.007812 48.626953 C 43.815812 48.626953 44.562234 48.334688 45.115234 47.804688 C 47.492234 45.665687 49.295078 44.087234 50.330078 43.240234 C 51.720078 42.128234 51.843469 40.189578 50.605469 38.642578 L 50.345703 38.308594 C 49.190703 36.824594 48 35.751734 48 33.302734 L 48 22.287109 C 48 17.374109 48.000375 12.732094 44.109375 8.9960938 C 40.230375 5.3110937 34.471453 5.0253906 32.689453 5.0253906 z M 32.689453 6.890625 C 36.140453 6.890625 40.164359 7.8197969 42.818359 10.341797 C 46.136359 13.527797 46.136719 17.641109 46.136719 22.287109 L 46.136719 33.302734 C 46.136719 36.620734 47.821438 38.080641 49.148438 39.806641 C 49.679437 40.470641 49.812438 41.267828 49.148438 41.798828 C 47.688437 42.993828 45.166844 45.249359 43.839844 46.443359 C 43.620844 46.662359 43.319859 46.761719 43.005859 46.761719 C 42.749859 46.761719 42.484094 46.695172 42.246094 46.576172 C 39.990094 44.585172 39.458672 43.522063 38.263672 41.664062 C 34.414672 45.513063 31.494984 46.708984 26.583984 46.708984 C 20.743984 46.708984 16.230469 43.124219 16.230469 35.824219 C 16.230469 30.117219 19.284063 26.269156 23.664062 24.410156 C 27.380063 22.817156 31.893625 22.816406 36.140625 22.816406 L 36.140625 18.835938 C 36.140625 15.650937 33.352578 14.853516 31.892578 14.853516 C 29.237578 14.853516 26.982172 16.18075 26.451172 18.96875 C 26.318172 19.63275 25.919859 20.294922 25.255859 20.294922 L 18.486328 19.498047 C 17.955328 19.365047 17.292781 18.968063 17.425781 18.039062 C 19.019781 9.8100625 25.389453 6.890625 32.689453 6.890625 z M 31.892578 16.71875 C 32.451578 16.71875 34.275391 16.870937 34.275391 18.835938 L 34.275391 20.958984 C 31.908391 20.977984 29.434547 21.067094 27.060547 21.496094 C 27.061547 21.496094 28.097297 20.247984 28.279297 19.333984 C 28.713297 17.054984 30.729578 16.71875 31.892578 16.71875 z M 36.007812 28.126953 C 30.963812 28.126953 25.076172 29.103172 25.076172 35.076172 C 25.076172 35.075172 25.389094 38.744141 29.371094 38.744141 C 35.875094 38.744141 36.007813 32.241891 36.007812 29.587891 L 36.007812 28.126953 z M 34.140625 30.035156 C 34.060625 34.890156 32.661094 36.880859 29.371094 36.880859 C 27.406094 36.880859 26.941406 35.573172 26.941406 35.076172 C 26.941406 32.401172 28.460625 30.335156 34.140625 30.035156 z M 53.658203 44.761719 C 52.177203 44.761719 49.358328 45.009922 47.111328 46.669922 C 46.004328 47.499922 45.878953 48.585125 46.126953 49.328125 C 46.271953 49.764125 46.546156 50.127719 46.910156 50.386719 C 42.145156 51.828719 36.719531 53.134766 31.894531 53.134766 C 23.624531 53.134766 15.764203 50.570922 8.5332031 46.419922 L 8.4863281 46.392578 L 8.4394531 46.367188 C 8.0894531 46.192188 7.7023125 46.101563 7.3203125 46.101562 C 6.3663125 46.101562 5.5191094 46.656578 5.1621094 47.517578 C 4.7941094 48.406578 5.0228125 49.415391 5.7578125 50.150391 L 5.7929688 50.185547 L 5.828125 50.21875 C 13.207125 56.86075 22.510391 61 32.025391 61 C 38.408391 61 45.836484 58.410953 51.396484 55.126953 C 51.259484 55.642953 51.316219 56.185016 51.574219 56.666016 C 51.947219 57.362016 52.686953 57.794922 53.501953 57.794922 C 54.110953 57.794922 54.695109 57.560859 55.162109 57.130859 C 58.536109 54.312859 59.765297 48.191891 58.529297 46.337891 C 57.614297 44.965891 55.085203 44.761719 53.658203 44.761719 z M 53.658203 46.625 C 55.348203 46.625 56.718516 46.982094 56.978516 47.371094 C 57.509516 48.167094 56.845781 53.345375 53.925781 55.734375 C 53.786781 55.873375 53.632953 55.931641 53.501953 55.931641 C 53.255953 55.931641 53.090672 55.72775 53.263672 55.46875 C 53.927672 53.87575 55.386656 50.159469 54.722656 49.230469 C 54.428656 48.818469 53.483094 48.693359 52.371094 48.693359 C 50.973094 48.693359 49.312562 48.890844 48.351562 48.964844 C 47.820563 48.964844 47.68775 48.567922 48.21875 48.169922 C 49.77875 47.016922 51.892203 46.625 53.658203 46.625 z M 7.3183594 47.966797 C 7.4093594 47.966797 7.5055156 47.988109 7.6035156 48.037109 C 14.770516 52.151109 22.867578 55 31.892578 55 C 37.998578 55 45.697547 53.213594 51.935547 50.558594 C 52.035547 50.529594 52.133516 50.515625 52.228516 50.515625 C 53.015516 50.515625 53.560469 51.424578 52.730469 52.017578 C 47.155469 56.132578 38.794391 59.136719 32.025391 59.136719 C 22.336391 59.136719 13.708266 54.805031 7.0722656 48.832031 C 6.6402656 48.399031 6.9143594 47.966797 7.3183594 47.966797 z"></path>

     
 </symbol>
  </defs>
</svg>
